<svg width="84" height="61" viewBox="0 0 84 61" fill="none" xmlns="http://www.w3.org/2000/svg">
<path d="M49 40C46.2456 40.0014 43.5211 39.4292 41 38.32C38.4789 39.4292 35.7544 40.0014 33 40H49ZM49 40C54.3043 40 59.3914 37.8929 63.1421 34.1421M49 40L63.1421 34.1421M63.1421 34.1421C66.8929 30.3914 69 25.3043 69 20M63.1421 34.1421L69 20M69 20C69 14.6957 66.8929 9.60859 63.1421 5.85787M69 20L63.1421 5.85787M63.1421 5.85787C59.3914 2.10714 54.3043 2.52071e-06 49 2.52071e-06L63.1421 5.85787ZM48.9998 0.450003H49C54.185 0.450003 59.1576 2.50973 62.8239 6.17606C66.4903 9.8424 68.55 14.815 68.55 20C68.55 25.185 66.4903 30.1576 62.8239 33.8239C59.1576 37.4903 54.185 39.55 49 39.55H48.9998C46.3079 39.5514 43.6452 38.9922 41.1812 37.9081L41 37.8284L40.8188 37.9081C38.3548 38.9922 35.6921 39.5514 33.0002 39.55H33C27.815 39.55 22.8424 37.4903 19.1761 33.8239C15.5097 30.1576 13.45 25.185 13.45 20C13.45 14.815 15.5097 9.8424 19.1761 6.17606C22.8424 2.50973 27.815 0.450003 33 0.450003L33.0002 0.450002C35.6921 0.448646 38.3548 1.00781 40.8188 2.0919L41 2.17163L41.1812 2.0919C43.6452 1.00781 46.3079 0.448646 48.9998 0.450003ZM33 36.45H33.0004C34.2187 36.4488 35.4331 36.3109 36.6206 36.0386L37.5269 35.8309L36.8016 35.249C34.5183 33.4171 32.6755 31.0959 31.4092 28.4566C30.143 25.8173 29.4856 22.9273 29.4856 20C29.4856 17.0727 30.143 14.1827 31.4092 11.5434C32.6755 8.90411 34.5183 6.58287 36.8016 4.751L37.5269 4.16915L36.6206 3.96138C35.4331 3.68915 34.2187 3.55116 33.0004 3.55H33C28.6372 3.55 24.4531 5.28312 21.3681 8.3681C18.2831 11.4531 16.55 15.6372 16.55 20C16.55 24.3628 18.2831 28.5469 21.3681 31.6319C24.4531 34.7169 28.6372 36.45 33 36.45ZM49.45 20.0005V19.9995C49.447 17.1148 48.6855 14.2816 47.2419 11.7841C45.7983 9.28661 43.7232 7.21265 41.225 5.77029L40.9995 5.64008L40.7742 5.77075C38.2814 7.21679 36.2122 9.29234 34.7738 11.7896C33.3354 14.2868 32.5783 17.1181 32.5783 20C32.5783 22.8819 33.3354 25.7132 34.7738 28.2104C36.2122 30.7077 38.2814 32.7832 40.7742 34.2293L40.9995 34.3599L41.225 34.2297C43.7232 32.7874 45.7983 30.7134 47.2419 28.2159C48.6855 25.7184 49.447 22.8852 49.45 20.0005ZM45.1984 35.249L44.4731 35.8309L45.3794 36.0386C46.5669 36.3109 47.7813 36.4488 48.9996 36.45H49C53.3628 36.45 57.5469 34.7169 60.6319 31.6319C63.7169 28.5469 65.45 24.3628 65.45 20C65.45 15.6372 63.7169 11.4531 60.6319 8.3681C57.5469 5.28312 53.3628 3.55 49 3.55L48.9996 3.55C47.7813 3.55116 46.5669 3.68915 45.3794 3.96138L44.4731 4.16915L45.1984 4.751C47.4817 6.58287 49.3245 8.90411 50.5908 11.5434C51.857 14.1827 52.5144 17.0727 52.5144 20C52.5144 22.9273 51.857 25.8173 50.5908 28.4566C49.3245 31.0959 47.4817 33.4171 45.1984 35.249Z" fill="#ECF6FF" stroke="black" stroke-width="0.9"/>
<path d="M6.01 56C5.78333 56 5.62 55.88 5.52 55.64L0.33 43.86C0.243333 43.6667 0.243333 43.5067 0.33 43.38C0.423333 43.2533 0.55 43.1733 0.71 43.14C0.983333 43.0733 1.17333 43.1733 1.28 43.44L6.28 54.78H5.91L10.88 43.44C10.9867 43.1733 11.18 43.0733 11.46 43.14C11.6333 43.1733 11.76 43.2533 11.84 43.38C11.92 43.5067 11.92 43.6667 11.84 43.86L6.63 55.64C6.53 55.88 6.36 56 6.12 56H6.01ZM15.6566 56C14.6166 56 13.8532 55.76 13.3666 55.28C12.8866 54.7933 12.6466 54.03 12.6466 52.99C12.6466 51.95 12.8899 51.1867 13.3766 50.7C13.8632 50.2133 14.6232 49.97 15.6566 49.97H20.2066C20.1932 49.09 19.9932 48.4767 19.6066 48.13C19.2266 47.7767 18.5766 47.6 17.6566 47.6H16.4966C15.6499 47.6 15.0299 47.69 14.6366 47.87C14.2432 48.05 13.9999 48.3567 13.9066 48.79C13.8599 48.9567 13.7966 49.08 13.7166 49.16C13.6432 49.2333 13.5232 49.27 13.3566 49.27C13.1832 49.27 13.0466 49.2233 12.9466 49.13C12.8532 49.03 12.8199 48.8967 12.8466 48.73C12.9332 47.97 13.2766 47.4167 13.8766 47.07C14.4832 46.7233 15.3566 46.55 16.4966 46.55H17.6566C18.9032 46.55 19.8132 46.84 20.3866 47.42C20.9666 47.9933 21.2566 48.9033 21.2566 50.15V55.47C21.2566 55.8233 21.0832 56 20.7366 56C20.3832 56 20.2066 55.8233 20.2066 55.47V54.48C19.5666 55.4933 18.4232 56 16.7766 56H15.6566ZM15.6566 54.95H16.7766C17.4232 54.95 17.9899 54.88 18.4766 54.74C18.9699 54.5933 19.3666 54.36 19.6666 54.04C19.9666 53.72 20.1466 53.2933 20.2066 52.76V51.02H15.6566C14.9166 51.02 14.4032 51.1633 14.1166 51.45C13.8366 51.73 13.6966 52.2433 13.6966 52.99C13.6966 53.73 13.8366 54.2433 14.1166 54.53C14.4032 54.81 14.9166 54.95 15.6566 54.95ZM27.1192 60C26.3326 60 25.7326 59.8367 25.3192 59.51C24.9059 59.19 24.6626 58.6833 24.5892 57.99C24.5692 57.8167 24.6059 57.68 24.6992 57.58C24.7926 57.48 24.9226 57.43 25.0892 57.43C25.2559 57.43 25.3826 57.4733 25.4692 57.56C25.5559 57.6467 25.6126 57.7767 25.6392 57.95C25.6859 58.3367 25.8226 58.6 26.0492 58.74C26.2759 58.88 26.6326 58.95 27.1192 58.95H30.8392C31.4259 58.95 31.8226 58.8433 32.0292 58.63C32.2426 58.4167 32.3492 58.0167 32.3492 57.43V54.57C32.0426 55.0367 31.6092 55.3933 31.0492 55.64C30.4892 55.88 29.7792 56 28.9192 56H28.1592C26.9126 56 25.9992 55.7133 25.4192 55.14C24.8392 54.56 24.5492 53.65 24.5492 52.41V50.15C24.5492 48.89 24.8359 47.9767 25.4092 47.41C25.9892 46.8367 26.9059 46.55 28.1592 46.55H29.7992C30.4526 46.55 30.9826 46.6367 31.3892 46.81C31.7959 46.9833 32.1159 47.2533 32.3492 47.62V47.07C32.3492 46.7233 32.5259 46.55 32.8792 46.55C33.2259 46.55 33.3992 46.7233 33.3992 47.07V57.43C33.3992 58.31 33.1926 58.9567 32.7792 59.37C32.3659 59.79 31.7192 60 30.8392 60H27.1192ZM28.1592 54.95H28.9192C29.9592 54.95 30.7892 54.7867 31.4092 54.46C32.0359 54.1333 32.3492 53.6367 32.3492 52.97V49.63C32.3492 48.8767 32.1392 48.35 31.7192 48.05C31.2992 47.75 30.6592 47.6 29.7992 47.6H28.1592C27.2059 47.6 26.5392 47.7867 26.1592 48.16C25.7859 48.5267 25.5992 49.19 25.5992 50.15V52.41C25.5992 53.35 25.7859 54.01 26.1592 54.39C26.5392 54.7633 27.2059 54.95 28.1592 54.95ZM39.7777 56C38.7377 56 37.9743 55.76 37.4877 55.28C37.0077 54.7933 36.7677 54.03 36.7677 52.99C36.7677 51.95 37.011 51.1867 37.4977 50.7C37.9843 50.2133 38.7443 49.97 39.7777 49.97H44.3277C44.3143 49.09 44.1143 48.4767 43.7277 48.13C43.3477 47.7767 42.6977 47.6 41.7777 47.6H40.6177C39.771 47.6 39.151 47.69 38.7577 47.87C38.3643 48.05 38.121 48.3567 38.0277 48.79C37.981 48.9567 37.9177 49.08 37.8377 49.16C37.7643 49.2333 37.6443 49.27 37.4777 49.27C37.3043 49.27 37.1677 49.2233 37.0677 49.13C36.9743 49.03 36.941 48.8967 36.9677 48.73C37.0543 47.97 37.3977 47.4167 37.9977 47.07C38.6043 46.7233 39.4777 46.55 40.6177 46.55H41.7777C43.0243 46.55 43.9343 46.84 44.5077 47.42C45.0877 47.9933 45.3777 48.9033 45.3777 50.15V55.47C45.3777 55.8233 45.2043 56 44.8577 56C44.5043 56 44.3277 55.8233 44.3277 55.47V54.48C43.6877 55.4933 42.5443 56 40.8977 56H39.7777ZM39.7777 54.95H40.8977C41.5443 54.95 42.111 54.88 42.5977 54.74C43.091 54.5933 43.4877 54.36 43.7877 54.04C44.0877 53.72 44.2677 53.2933 44.3277 52.76V51.02H39.7777C39.0377 51.02 38.5243 51.1633 38.2377 51.45C37.9577 51.73 37.8177 52.2433 37.8177 52.99C37.8177 53.73 37.9577 54.2433 38.2377 54.53C38.5243 54.81 39.0377 54.95 39.7777 54.95ZM49.4703 56C49.117 56 48.9403 55.8233 48.9403 55.47V47.07C48.9403 46.7233 49.117 46.55 49.4703 46.55C49.817 46.55 49.9903 46.7233 49.9903 47.07V48.03C50.6236 47.0433 51.7703 46.55 53.4303 46.55H53.9903C55.237 46.55 56.147 46.84 56.7203 47.42C57.3003 47.9933 57.5903 48.9033 57.5903 50.15V55.47C57.5903 55.8233 57.417 56 57.0703 56C56.717 56 56.5403 55.8233 56.5403 55.47V50.15C56.5403 49.1967 56.3503 48.5333 55.9703 48.16C55.597 47.7867 54.937 47.6 53.9903 47.6H53.4303C52.397 47.6 51.5836 47.7633 50.9903 48.09C50.397 48.4167 50.0636 48.9267 49.9903 49.62V55.47C49.9903 55.8233 49.817 56 49.4703 56ZM64.4873 56C63.2407 56 62.3273 55.71 61.7473 55.13C61.1673 54.55 60.8773 53.6367 60.8773 52.39V50.15C60.8773 48.9033 61.1673 47.9933 61.7473 47.42C62.3273 46.84 63.2407 46.55 64.4873 46.55H68.6773V42.65C68.6773 42.3033 68.854 42.13 69.2073 42.13C69.554 42.13 69.7273 42.3033 69.7273 42.65V55.47C69.7273 55.8233 69.554 56 69.2073 56C68.854 56 68.6773 55.8233 68.6773 55.47V54.61C68.3907 55.07 67.9707 55.4167 67.4173 55.65C66.864 55.8833 66.1407 56 65.2473 56H64.4873ZM64.4873 54.95H65.2473C66.2873 54.95 67.1173 54.7867 67.7373 54.46C68.364 54.1267 68.6773 53.63 68.6773 52.97V47.6H64.4873C63.534 47.6 62.8673 47.79 62.4873 48.17C62.114 48.5433 61.9273 49.2033 61.9273 50.15V52.39C61.9273 53.3433 62.114 54.01 62.4873 54.39C62.8673 54.7633 63.534 54.95 64.4873 54.95ZM76.6358 56C75.3891 56 74.4758 55.7133 73.8958 55.14C73.3158 54.56 73.0258 53.65 73.0258 52.41V50.15C73.0258 48.89 73.3158 47.9733 73.8958 47.4C74.4758 46.82 75.3891 46.5367 76.6358 46.55H78.2758C79.5224 46.55 80.4324 46.84 81.0058 47.42C81.5858 47.9933 81.8758 48.9033 81.8758 50.15V52.39C81.8758 53.6367 81.5858 54.55 81.0058 55.13C80.4324 55.71 79.5224 56 78.2758 56H76.6358ZM74.0758 52.41C74.0758 53.35 74.2624 54.01 74.6358 54.39C75.0158 54.7633 75.6824 54.95 76.6358 54.95H78.2758C79.2291 54.95 79.8924 54.7633 80.2658 54.39C80.6391 54.01 80.8258 53.3433 80.8258 52.39V50.15C80.8258 49.1967 80.6391 48.5333 80.2658 48.16C79.8924 47.7867 79.2291 47.6 78.2758 47.6H76.6358C75.9958 47.5933 75.4891 47.67 75.1158 47.83C74.7424 47.99 74.4758 48.2567 74.3158 48.63C74.1558 49.0033 74.0758 49.51 74.0758 50.15V52.41Z" fill="#E1E4FF"/>
<path d="M5.52 55.64L5.79698 55.5246L5.79454 55.519L5.52 55.64ZM0.33 43.86L0.604542 43.739L0.603753 43.7373L0.33 43.86ZM0.33 43.38L0.0883357 43.2019L0.0824076 43.2106L0.33 43.38ZM0.71 43.14L0.771221 43.4339L0.781087 43.4315L0.71 43.14ZM1.28 43.44L1.00129 43.5515L1.0055 43.561L1.28 43.44ZM6.28 54.78V55.08H6.74014L6.5545 54.659L6.28 54.78ZM5.91 54.78L5.63523 54.6596L5.45097 55.08H5.91V54.78ZM10.88 43.44L11.1549 43.5605L11.1585 43.5514L10.88 43.44ZM11.46 43.14L11.3904 43.4321L11.4033 43.4346L11.46 43.14ZM11.84 43.38L11.5864 43.5402L11.5864 43.5402L11.84 43.38ZM11.84 43.86L12.1144 43.9814L12.1172 43.9747L11.84 43.86ZM6.63 55.64L6.35557 55.5186L6.35308 55.5246L6.63 55.64ZM6.01 55.7C5.95264 55.7 5.91926 55.686 5.89512 55.6682C5.86824 55.6485 5.83177 55.6083 5.79692 55.5246L5.24308 55.7554C5.30823 55.9117 5.40343 56.0515 5.53988 56.1518C5.67908 56.254 5.84069 56.3 6.01 56.3V55.7ZM5.79454 55.519L0.604536 43.739L0.0554639 43.981L5.24546 55.761L5.79454 55.519ZM0.603753 43.7373C0.541739 43.5989 0.571146 43.5588 0.577592 43.5494L0.0824076 43.2106C-0.0844793 43.4545 -0.0550723 43.7344 0.0562473 43.9827L0.603753 43.7373ZM0.571516 43.558C0.619208 43.4932 0.680418 43.4526 0.771186 43.4337L0.648814 42.8463C0.419582 42.8941 0.227459 43.0134 0.0884835 43.202L0.571516 43.558ZM0.781087 43.4315C0.869184 43.41 0.905457 43.424 0.917776 43.4305C0.931067 43.4375 0.965595 43.4618 1.00146 43.5514L1.55854 43.3286C1.48774 43.1516 1.37393 42.9925 1.19722 42.8995C1.01954 42.806 0.82415 42.8034 0.638913 42.8485L0.781087 43.4315ZM1.0055 43.561L6.0055 54.901L6.5545 54.659L1.5545 43.319L1.0055 43.561ZM6.28 54.48H5.91V55.08H6.28V54.48ZM6.18477 54.9004L11.1548 43.5604L10.6052 43.3196L5.63523 54.6596L6.18477 54.9004ZM11.1585 43.5514C11.1938 43.4633 11.2282 43.439 11.2428 43.4315C11.2575 43.4239 11.2976 43.4097 11.3905 43.4318L11.5295 42.8482C11.3424 42.8036 11.1458 42.8061 10.9672 42.8985C10.7884 42.991 10.6729 43.15 10.6015 43.3286L11.1585 43.5514ZM11.4033 43.4346C11.511 43.4553 11.5585 43.4961 11.5864 43.5402L12.0936 43.2198C11.9615 43.0105 11.7556 42.8914 11.5167 42.8454L11.4033 43.4346ZM11.5864 43.5402C11.5955 43.5547 11.6215 43.6035 11.5628 43.7453L12.1172 43.9747C12.2185 43.7298 12.2445 43.4587 12.0936 43.2198L11.5864 43.5402ZM11.5656 43.7387L6.35564 55.5187L6.90436 55.7613L12.1144 43.9813L11.5656 43.7387ZM6.35308 55.5246C6.31941 55.6054 6.28307 55.6447 6.2545 55.6649C6.22758 55.6839 6.18787 55.7 6.12 55.7V56.3C6.29213 56.3 6.45742 56.2561 6.60051 56.1551C6.74193 56.0553 6.84059 55.9146 6.90692 55.7554L6.35308 55.5246ZM6.12 55.7H6.01V56.3H6.12V55.7ZM13.3666 55.28L13.153 55.4907L13.1559 55.4936L13.3666 55.28ZM13.3766 50.7L13.1644 50.4879L13.1644 50.4879L13.3766 50.7ZM20.2066 49.97V50.27H20.5111L20.5065 49.9655L20.2066 49.97ZM19.6066 48.13L19.4022 48.3497L19.4063 48.3534L19.6066 48.13ZM14.6366 47.87L14.7614 48.1428L14.7614 48.1428L14.6366 47.87ZM13.9066 48.79L14.1955 48.8709L14.1979 48.8621L14.1998 48.8532L13.9066 48.79ZM13.7166 49.16L13.9287 49.3721L13.9287 49.3721L13.7166 49.16ZM12.9466 49.13L12.7272 49.3347L12.7343 49.3423L12.7419 49.3493L12.9466 49.13ZM12.8466 48.73L13.1431 48.7774L13.1446 48.764L12.8466 48.73ZM13.8766 47.07L13.7277 46.8095L13.7265 46.8102L13.8766 47.07ZM20.3866 47.42L20.1732 47.6309L20.1757 47.6334L20.3866 47.42ZM20.2066 54.48H20.5066V53.4432L19.9529 54.3198L20.2066 54.48ZM18.4766 54.74L18.5595 55.0283L18.5621 55.0276L18.4766 54.74ZM19.6666 54.04L19.4477 53.8348L19.4477 53.8348L19.6666 54.04ZM20.2066 52.76L20.5047 52.7935L20.5066 52.7768V52.76H20.2066ZM20.2066 51.02H20.5066V50.72H20.2066V51.02ZM14.1166 54.53L13.9019 54.7397L13.9069 54.7446L14.1166 54.53ZM15.6566 55.7C14.6551 55.7 13.9844 55.468 13.5772 55.0664L13.1559 55.4936C13.722 56.052 14.578 56.3 15.6566 56.3V55.7ZM13.5802 55.0693C13.1785 54.6621 12.9466 53.9915 12.9466 52.99H12.3466C12.3466 54.0685 12.5946 54.9245 13.153 55.4907L13.5802 55.0693ZM12.9466 52.99C12.9466 51.9895 13.1814 51.3194 13.5887 50.9121L13.1644 50.4879C12.5984 51.0539 12.3466 51.9105 12.3466 52.99H12.9466ZM13.5887 50.9121C13.9963 50.5045 14.6634 50.27 15.6566 50.27V49.67C14.5831 49.67 13.7302 49.9221 13.1644 50.4879L13.5887 50.9121ZM15.6566 50.27H20.2066V49.67H15.6566V50.27ZM20.5065 49.9655C20.4928 49.057 20.2875 48.3376 19.8068 47.9066L19.4063 48.3534C19.6989 48.6157 19.8937 49.123 19.9066 49.9745L20.5065 49.9655ZM19.8108 47.9103C19.3458 47.4779 18.599 47.3 17.6566 47.3V47.9C18.5541 47.9 19.1073 48.0754 19.4023 48.3497L19.8108 47.9103ZM17.6566 47.3H16.4966V47.9H17.6566V47.3ZM16.4966 47.3C15.6403 47.3 14.9662 47.3892 14.5117 47.5972L14.7614 48.1428C15.0936 47.9908 15.6595 47.9 16.4966 47.9V47.3ZM14.5117 47.5972C14.0298 47.8177 13.726 48.2037 13.6133 48.7268L14.1998 48.8532C14.2738 48.5097 14.4566 48.2823 14.7614 48.1428L14.5117 47.5972ZM13.6177 48.7091C13.5782 48.8503 13.5337 48.9186 13.5044 48.9479L13.9287 49.3721C14.0595 49.2414 14.1416 49.0631 14.1955 48.8709L13.6177 48.7091ZM13.5044 48.9479C13.5091 48.9432 13.5067 48.9486 13.4839 48.9556C13.4599 48.9629 13.4193 48.97 13.3566 48.97V49.57C13.5564 49.57 13.7731 49.5277 13.9287 49.3721L13.5044 48.9479ZM13.3566 48.97C13.2381 48.97 13.182 48.9394 13.1513 48.9107L12.7419 49.3493C12.9111 49.5073 13.1284 49.57 13.3566 49.57V48.97ZM13.1659 48.9253C13.1504 48.9087 13.127 48.8763 13.1428 48.7774L12.5503 48.6826C12.5128 48.917 12.556 49.1513 12.7272 49.3347L13.1659 48.9253ZM13.1446 48.764C13.2218 48.0871 13.5184 47.6234 14.0266 47.3298L13.7265 46.8102C13.0348 47.2099 12.6446 47.8529 12.5485 48.696L13.1446 48.764ZM14.0254 47.3305C14.5666 47.0212 15.3793 46.85 16.4966 46.85V46.25C15.3338 46.25 14.3998 46.4255 13.7277 46.8095L14.0254 47.3305ZM16.4966 46.85H17.6566V46.25H16.4966V46.85ZM17.6566 46.85C18.8647 46.85 19.68 47.1319 20.1732 47.6309L20.5999 47.2091C19.9465 46.5481 18.9418 46.25 17.6566 46.25V46.85ZM20.1757 47.6334C20.6746 48.1266 20.9566 48.9419 20.9566 50.15H21.5566C21.5566 48.8648 21.2585 47.8601 20.5975 47.2066L20.1757 47.6334ZM20.9566 50.15V55.47H21.5566V50.15H20.9566ZM20.9566 55.47C20.9566 55.6018 20.9242 55.6453 20.9124 55.6574C20.9016 55.6684 20.8622 55.7 20.7366 55.7V56.3C20.9576 56.3 21.1782 56.2433 21.3407 56.0776C21.5022 55.913 21.5566 55.6915 21.5566 55.47H20.9566ZM20.7366 55.7C20.6061 55.7 20.5634 55.6676 20.5512 55.6554C20.539 55.6431 20.5066 55.6004 20.5066 55.47H19.9066C19.9066 55.6929 19.9625 55.9152 20.1269 56.0796C20.2914 56.2441 20.5137 56.3 20.7366 56.3V55.7ZM20.5066 55.47V54.48H19.9066V55.47H20.5066ZM19.9529 54.3198C19.3873 55.2153 18.3629 55.7 16.7766 55.7V56.3C18.4836 56.3 19.7458 55.7713 20.4602 54.6402L19.9529 54.3198ZM16.7766 55.7H15.6566V56.3H16.7766V55.7ZM15.6566 55.25H16.7766V54.65H15.6566V55.25ZM16.7766 55.25C17.4439 55.25 18.0396 55.1779 18.5595 55.0283L18.3936 54.4517C17.9402 54.5821 17.4025 54.65 16.7766 54.65V55.25ZM18.5621 55.0276C19.0974 54.8684 19.5432 54.6102 19.8854 54.2452L19.4477 53.8348C19.1899 54.1098 18.8423 54.3183 18.3911 54.4524L18.5621 55.0276ZM19.8854 54.2452C20.2388 53.8683 20.4391 53.3765 20.5047 52.7935L19.9084 52.7265C19.854 53.2102 19.6943 53.5717 19.4477 53.8348L19.8854 54.2452ZM20.5066 52.76V51.02H19.9066V52.76H20.5066ZM20.2066 50.72H15.6566V51.32H20.2066V50.72ZM15.6566 50.72C14.8966 50.72 14.2788 50.8635 13.9044 51.2379L14.3287 51.6621C14.5277 51.4631 14.9366 51.32 15.6566 51.32V50.72ZM13.9044 51.2379C13.5355 51.6068 13.3966 52.2267 13.3966 52.99H13.9966C13.9966 52.26 14.1377 51.8532 14.3287 51.6621L13.9044 51.2379ZM13.3966 52.99C13.3966 53.7487 13.5363 54.3653 13.9019 54.7396L14.3312 54.3204C14.1368 54.1214 13.9966 53.7113 13.9966 52.99H13.3966ZM13.9069 54.7446C14.2813 55.1103 14.8979 55.25 15.6566 55.25V54.65C14.9353 54.65 14.5252 54.5097 14.3262 54.3154L13.9069 54.7446ZM25.3192 59.51L25.5052 59.2746L25.5029 59.2728L25.3192 59.51ZM24.5892 57.99L24.8876 57.9584L24.8872 57.9556L24.5892 57.99ZM25.4692 57.56L25.2571 57.7721L25.4692 57.56ZM25.6392 57.95L25.9372 57.914L25.9357 57.9044L25.6392 57.95ZM26.0492 58.74L25.8916 58.9952L25.8916 58.9952L26.0492 58.74ZM32.0292 58.63L31.8171 58.4178L31.8137 58.4213L32.0292 58.63ZM32.3492 54.57H32.6492V53.5672L32.0985 54.4052L32.3492 54.57ZM31.0492 55.64L31.1674 55.9158L31.1702 55.9145L31.0492 55.64ZM25.4192 55.14L25.2071 55.3521L25.2083 55.3534L25.4192 55.14ZM25.4092 47.41L25.6201 47.6234L25.6201 47.6234L25.4092 47.41ZM31.3892 46.81L31.2716 47.086L31.2716 47.086L31.3892 46.81ZM32.3492 47.62L32.0961 47.7811L32.6492 48.6502V47.62H32.3492ZM32.7792 59.37L32.5671 59.1579L32.5654 59.1596L32.7792 59.37ZM31.4092 54.46L31.2705 54.194L31.2694 54.1946L31.4092 54.46ZM31.7192 48.05L31.5448 48.2941L31.5448 48.2941L31.7192 48.05ZM26.1592 48.16L26.3694 48.374L26.3695 48.374L26.1592 48.16ZM26.1592 54.39L25.9452 54.6003L25.949 54.604L26.1592 54.39ZM27.1192 59.7C26.3682 59.7 25.8451 59.5432 25.5052 59.2746L25.1332 59.7454C25.62 60.1301 26.2969 60.3 27.1192 60.3V59.7ZM25.5029 59.2728C25.1736 59.0179 24.9553 58.5987 24.8876 57.9584L24.2909 58.0216C24.3698 58.768 24.6381 59.3621 25.1356 59.7472L25.5029 59.2728ZM24.8872 57.9556C24.8743 57.8437 24.901 57.8035 24.9185 57.7847L24.4799 57.3753C24.3108 57.5565 24.2641 57.7896 24.2912 58.0244L24.8872 57.9556ZM24.9185 57.7847C24.943 57.7584 24.9861 57.73 25.0892 57.73V57.13C24.859 57.13 24.6421 57.2016 24.4799 57.3753L24.9185 57.7847ZM25.0892 57.73C25.2057 57.73 25.2445 57.7596 25.2571 57.7721L25.6814 57.3479C25.5206 57.1871 25.3061 57.13 25.0892 57.13V57.73ZM25.2571 57.7721C25.2829 57.798 25.3217 57.8591 25.3427 57.9956L25.9357 57.9044C25.9034 57.6942 25.8288 57.4954 25.6814 57.3479L25.2571 57.7721ZM25.3414 57.9859C25.3938 58.4199 25.5564 58.7883 25.8916 58.9952L26.2069 58.4848C26.0887 58.4117 25.978 58.2535 25.9371 57.9141L25.3414 57.9859ZM25.8916 58.9952C26.1906 59.1799 26.6163 59.25 27.1192 59.25V58.65C26.6488 58.65 26.3612 58.5801 26.2069 58.4848L25.8916 58.9952ZM27.1192 59.25H30.8392V58.65H27.1192V59.25ZM30.8392 59.25C31.4376 59.25 31.9467 59.1463 32.2447 58.8387L31.8137 58.4213C31.6984 58.5404 31.4141 58.65 30.8392 58.65V59.25ZM32.2414 58.8421C32.5448 58.5387 32.6492 58.0301 32.6492 57.43H32.0492C32.0492 58.0032 31.9403 58.2947 31.8171 58.4179L32.2414 58.8421ZM32.6492 57.43V54.57H32.0492V57.43H32.6492ZM32.0985 54.4052C31.8266 54.819 31.4406 55.1398 30.9283 55.3655L31.1702 55.9145C31.7778 55.6469 32.2585 55.2544 32.5999 54.7348L32.0985 54.4052ZM30.931 55.3643C30.4204 55.5831 29.7541 55.7 28.9192 55.7V56.3C29.8043 56.3 30.558 56.1769 31.1674 55.9157L30.931 55.3643ZM28.9192 55.7H28.1592V56.3H28.9192V55.7ZM28.1592 55.7C26.9507 55.7 26.1304 55.4212 25.6301 54.9266L25.2083 55.3534C25.868 56.0055 26.8745 56.3 28.1592 56.3V55.7ZM25.6314 54.9279C25.1307 54.4273 24.8492 53.6105 24.8492 52.41H24.2492C24.2492 53.6895 24.5477 54.6927 25.2071 55.3521L25.6314 54.9279ZM24.8492 52.41V50.15H24.2492V52.41H24.8492ZM24.8492 50.15C24.8492 48.9262 25.1289 48.1089 25.6201 47.6234L25.1983 47.1966C24.5429 47.8444 24.2492 48.8538 24.2492 50.15H24.8492ZM25.6201 47.6234C26.1201 47.1291 26.9434 46.85 28.1592 46.85V46.25C26.8683 46.25 25.8583 46.5442 25.1983 47.1966L25.6201 47.6234ZM28.1592 46.85H29.7992V46.25H28.1592V46.85ZM29.7992 46.85C30.4297 46.85 30.9155 46.9342 31.2716 47.086L31.5068 46.534C31.0496 46.3391 30.4754 46.25 29.7992 46.25V46.85ZM31.2716 47.086C31.6236 47.236 31.8959 47.4664 32.0961 47.7811L32.6023 47.4589C32.3359 47.0402 31.9682 46.7307 31.5068 46.534L31.2716 47.086ZM32.6492 47.62V47.07H32.0492V47.62H32.6492ZM32.6492 47.07C32.6492 46.9444 32.6808 46.9049 32.6918 46.8941C32.7039 46.8823 32.7474 46.85 32.8792 46.85V46.25C32.6577 46.25 32.4362 46.3043 32.2716 46.4659C32.1059 46.6284 32.0492 46.849 32.0492 47.07H32.6492ZM32.8792 46.85C33.0063 46.85 33.0465 46.8816 33.0571 46.8921C33.0677 46.9027 33.0992 46.9429 33.0992 47.07H33.6992C33.6992 46.8504 33.6441 46.6306 33.4814 46.4679C33.3186 46.3051 33.0988 46.25 32.8792 46.25V46.85ZM33.0992 47.07V57.43H33.6992V47.07H33.0992ZM33.0992 57.43C33.0992 58.2701 32.9012 58.8237 32.5671 59.1579L32.9914 59.5821C33.4839 59.0896 33.6992 58.3499 33.6992 57.43H33.0992ZM32.5654 59.1596C32.2311 59.4993 31.6782 59.7 30.8392 59.7V60.3C31.7603 60.3 32.5007 60.0807 32.993 59.5804L32.5654 59.1596ZM30.8392 59.7H27.1192V60.3H30.8392V59.7ZM28.1592 55.25H28.9192V54.65H28.1592V55.25ZM28.9192 55.25C29.9862 55.25 30.8701 55.0831 31.5491 54.7254L31.2694 54.1946C30.7083 54.4902 29.9323 54.65 28.9192 54.65V55.25ZM31.5479 54.726C31.8987 54.5432 32.1777 54.3041 32.3679 54.0026C32.5588 53.7001 32.6492 53.3521 32.6492 52.97H32.0492C32.0492 53.2545 31.983 53.4883 31.8605 53.6824C31.7374 53.8776 31.5464 54.0502 31.2705 54.194L31.5479 54.726ZM32.6492 52.97V49.63H32.0492V52.97H32.6492ZM32.6492 49.63C32.6492 48.8269 32.4242 48.1849 31.8936 47.8059L31.5448 48.2941C31.8542 48.5151 32.0492 48.9265 32.0492 49.63H32.6492ZM31.8936 47.8059C31.3988 47.4525 30.684 47.3 29.7992 47.3V47.9C30.6344 47.9 31.1996 48.0475 31.5448 48.2941L31.8936 47.8059ZM29.7992 47.3H28.1592V47.9H29.7992V47.3ZM28.1592 47.3C27.184 47.3 26.4155 47.4876 25.949 47.946L26.3695 48.374C26.6629 48.0857 27.2278 47.9 28.1592 47.9V47.3ZM25.949 47.946C25.4859 48.4008 25.2992 49.1705 25.2992 50.15H25.8992C25.8992 49.2095 26.0859 48.6525 26.3694 48.374L25.949 47.946ZM25.2992 50.15V52.41H25.8992V50.15H25.2992ZM25.2992 52.41C25.2992 53.3734 25.4874 54.1343 25.9452 54.6002L26.3732 54.1798C26.0844 53.8857 25.8992 53.3266 25.8992 52.41H25.2992ZM25.949 54.604C26.4155 55.0624 27.184 55.25 28.1592 55.25V54.65C27.2278 54.65 26.6629 54.4643 26.3695 54.176L25.949 54.604ZM37.4877 55.28L37.274 55.4907L37.277 55.4936L37.4877 55.28ZM37.4977 50.7L37.2855 50.4879L37.2855 50.4879L37.4977 50.7ZM44.3277 49.97V50.27H44.6322L44.6276 49.9655L44.3277 49.97ZM43.7277 48.13L43.5233 48.3497L43.5274 48.3534L43.7277 48.13ZM38.7577 47.87L38.8825 48.1428L38.8825 48.1428L38.7577 47.87ZM38.0277 48.79L38.3165 48.8709L38.319 48.8621L38.3209 48.8532L38.0277 48.79ZM37.8377 49.16L38.0498 49.3721L38.0498 49.3721L37.8377 49.16ZM37.0677 49.13L36.8483 49.3347L36.8554 49.3423L36.863 49.3493L37.0677 49.13ZM36.9677 48.73L37.2642 48.7774L37.2657 48.764L36.9677 48.73ZM37.9977 47.07L37.8488 46.8095L37.8476 46.8102L37.9977 47.07ZM44.5077 47.42L44.2943 47.6309L44.2968 47.6334L44.5077 47.42ZM44.3277 54.48H44.6277V53.4432L44.074 54.3198L44.3277 54.48ZM42.5977 54.74L42.6806 55.0283L42.6831 55.0276L42.5977 54.74ZM43.7877 54.04L43.5688 53.8348L43.5688 53.8348L43.7877 54.04ZM44.3277 52.76L44.6258 52.7935L44.6277 52.7768V52.76H44.3277ZM44.3277 51.02H44.6277V50.72H44.3277V51.02ZM38.2377 54.53L38.023 54.7397L38.028 54.7446L38.2377 54.53ZM39.7777 55.7C38.7762 55.7 38.1055 55.468 37.6983 55.0664L37.277 55.4936C37.8431 56.052 38.6991 56.3 39.7777 56.3V55.7ZM37.7012 55.0693C37.2996 54.6621 37.0677 53.9915 37.0677 52.99H36.4677C36.4677 54.0685 36.7157 54.9245 37.2741 55.4907L37.7012 55.0693ZM37.0677 52.99C37.0677 51.9895 37.3025 51.3194 37.7098 50.9121L37.2855 50.4879C36.7195 51.0539 36.4677 51.9105 36.4677 52.99H37.0677ZM37.7098 50.9121C38.1174 50.5045 38.7845 50.27 39.7777 50.27V49.67C38.7042 49.67 37.8512 49.9221 37.2855 50.4879L37.7098 50.9121ZM39.7777 50.27H44.3277V49.67H39.7777V50.27ZM44.6276 49.9655C44.6139 49.057 44.4086 48.3376 43.9279 47.9066L43.5274 48.3534C43.82 48.6157 44.0148 49.123 44.0277 49.9745L44.6276 49.9655ZM43.9319 47.9103C43.4669 47.4779 42.7201 47.3 41.7777 47.3V47.9C42.6752 47.9 43.2284 48.0754 43.5234 48.3497L43.9319 47.9103ZM41.7777 47.3H40.6177V47.9H41.7777V47.3ZM40.6177 47.3C39.7614 47.3 39.0873 47.3892 38.6328 47.5972L38.8825 48.1428C39.2147 47.9908 39.7806 47.9 40.6177 47.9V47.3ZM38.6328 47.5972C38.1509 47.8177 37.8471 48.2037 37.7344 48.7268L38.3209 48.8532C38.3949 48.5097 38.5777 48.2823 38.8825 48.1428L38.6328 47.5972ZM37.7388 48.7091C37.6992 48.8503 37.6548 48.9186 37.6255 48.9479L38.0498 49.3721C38.1806 49.2414 38.2627 49.0631 38.3165 48.8709L37.7388 48.7091ZM37.6255 48.9479C37.6302 48.9432 37.6278 48.9486 37.605 48.9556C37.581 48.9629 37.5404 48.97 37.4777 48.97V49.57C37.6775 49.57 37.8942 49.5277 38.0498 49.3721L37.6255 48.9479ZM37.4777 48.97C37.3592 48.97 37.3031 48.9394 37.2724 48.9107L36.863 49.3493C37.0322 49.5073 37.2495 49.57 37.4777 49.57V48.97ZM37.287 48.9253C37.2715 48.9087 37.2481 48.8763 37.2639 48.7774L36.6714 48.6826C36.6339 48.917 36.6771 49.1513 36.8483 49.3347L37.287 48.9253ZM37.2657 48.764C37.3429 48.0871 37.6395 47.6234 38.1477 47.3298L37.8476 46.8102C37.1559 47.2099 36.7657 47.8529 36.6696 48.696L37.2657 48.764ZM38.1465 47.3305C38.6877 47.0212 39.5004 46.85 40.6177 46.85V46.25C39.4549 46.25 38.5209 46.4255 37.8488 46.8095L38.1465 47.3305ZM40.6177 46.85H41.7777V46.25H40.6177V46.85ZM41.7777 46.85C42.9858 46.85 43.8011 47.1319 44.2943 47.6309L44.721 47.2091C44.0676 46.5481 43.0629 46.25 41.7777 46.25V46.85ZM44.2968 47.6334C44.7957 48.1266 45.0777 48.9419 45.0777 50.15H45.6777C45.6777 48.8648 45.3796 47.8601 44.7186 47.2066L44.2968 47.6334ZM45.0777 50.15V55.47H45.6777V50.15H45.0777ZM45.0777 55.47C45.0777 55.6018 45.0453 55.6453 45.0335 55.6574C45.0227 55.6684 44.9833 55.7 44.8577 55.7V56.3C45.0787 56.3 45.2993 56.2433 45.4618 56.0776C45.6233 55.913 45.6777 55.6915 45.6777 55.47H45.0777ZM44.8577 55.7C44.7272 55.7 44.6845 55.6676 44.6723 55.6554C44.6601 55.6431 44.6277 55.6004 44.6277 55.47H44.0277C44.0277 55.6929 44.0836 55.9152 44.248 56.0796C44.4125 56.2441 44.6347 56.3 44.8577 56.3V55.7ZM44.6277 55.47V54.48H44.0277V55.47H44.6277ZM44.074 54.3198C43.5084 55.2153 42.484 55.7 40.8977 55.7V56.3C42.6046 56.3 43.8669 55.7713 44.5813 54.6402L44.074 54.3198ZM40.8977 55.7H39.7777V56.3H40.8977V55.7ZM39.7777 55.25H40.8977V54.65H39.7777V55.25ZM40.8977 55.25C41.565 55.25 42.1607 55.1779 42.6806 55.0283L42.5147 54.4517C42.0613 54.5821 41.5236 54.65 40.8977 54.65V55.25ZM42.6831 55.0276C43.2185 54.8684 43.6643 54.6102 44.0065 54.2452L43.5688 53.8348C43.311 54.1098 42.9634 54.3183 42.5122 54.4524L42.6831 55.0276ZM44.0065 54.2452C44.3599 53.8683 44.5602 53.3765 44.6258 52.7935L44.0295 52.7265C43.9751 53.2102 43.8154 53.5717 43.5688 53.8348L44.0065 54.2452ZM44.6277 52.76V51.02H44.0277V52.76H44.6277ZM44.3277 50.72H39.7777V51.32H44.3277V50.72ZM39.7777 50.72C39.0177 50.72 38.3999 50.8635 38.0255 51.2379L38.4498 51.6621C38.6488 51.4631 39.0576 51.32 39.7777 51.32V50.72ZM38.0255 51.2379C37.6566 51.6068 37.5177 52.2267 37.5177 52.99H38.1177C38.1177 52.26 38.2588 51.8532 38.4498 51.6621L38.0255 51.2379ZM37.5177 52.99C37.5177 53.7487 37.6574 54.3653 38.023 54.7396L38.4523 54.3204C38.2579 54.1214 38.1177 53.7113 38.1177 52.99H37.5177ZM38.028 54.7446C38.4024 55.1103 39.019 55.25 39.7777 55.25V54.65C39.0564 54.65 38.6462 54.5097 38.4473 54.3154L38.028 54.7446ZM49.9903 48.03H49.6903V49.0527L50.2428 48.1921L49.9903 48.03ZM56.7203 47.42L56.5069 47.6309L56.5094 47.6334L56.7203 47.42ZM55.9703 48.16L55.7582 48.3721L55.7601 48.374L55.9703 48.16ZM50.9903 48.09L51.135 48.3528L51.135 48.3528L50.9903 48.09ZM49.9903 49.62L49.692 49.5884L49.6903 49.6042V49.62H49.9903ZM49.4703 55.7C49.3399 55.7 49.2972 55.6676 49.2849 55.6554C49.2727 55.6431 49.2403 55.6004 49.2403 55.47H48.6403C48.6403 55.6929 48.6962 55.9152 48.8607 56.0796C49.0251 56.2441 49.2474 56.3 49.4703 56.3V55.7ZM49.2403 55.47V47.07H48.6403V55.47H49.2403ZM49.2403 47.07C49.2403 46.9444 49.2719 46.9049 49.2829 46.8941C49.295 46.8823 49.3385 46.85 49.4703 46.85V46.25C49.2488 46.25 49.0273 46.3043 48.8627 46.4659C48.697 46.6284 48.6403 46.849 48.6403 47.07H49.2403ZM49.4703 46.85C49.5974 46.85 49.6376 46.8816 49.6482 46.8921C49.6587 46.9027 49.6903 46.9429 49.6903 47.07H50.2903C50.2903 46.8504 50.2352 46.6306 50.0724 46.4679C49.9097 46.3051 49.6899 46.25 49.4703 46.25V46.85ZM49.6903 47.07V48.03H50.2903V47.07H49.6903ZM50.2428 48.1921C50.7999 47.3242 51.8261 46.85 53.4303 46.85V46.25C51.7145 46.25 50.4474 46.7625 49.7378 47.8679L50.2428 48.1921ZM53.4303 46.85H53.9903V46.25H53.4303V46.85ZM53.9903 46.85C55.1984 46.85 56.0137 47.1319 56.507 47.6309L56.9337 47.2091C56.2802 46.5481 55.2755 46.25 53.9903 46.25V46.85ZM56.5094 47.6334C57.0084 48.1266 57.2903 48.9419 57.2903 50.15H57.8903C57.8903 48.8648 57.5922 47.8601 56.9312 47.2066L56.5094 47.6334ZM57.2903 50.15V55.47H57.8903V50.15H57.2903ZM57.2903 55.47C57.2903 55.6018 57.258 55.6453 57.2462 55.6574C57.2354 55.6684 57.1959 55.7 57.0703 55.7V56.3C57.2914 56.3 57.5119 56.2433 57.6745 56.0776C57.836 55.913 57.8903 55.6915 57.8903 55.47H57.2903ZM57.0703 55.7C56.9399 55.7 56.8972 55.6676 56.8849 55.6554C56.8727 55.6431 56.8403 55.6004 56.8403 55.47H56.2403C56.2403 55.6929 56.2962 55.9152 56.4607 56.0796C56.6251 56.2441 56.8474 56.3 57.0703 56.3V55.7ZM56.8403 55.47V50.15H56.2403V55.47H56.8403ZM56.8403 50.15C56.8403 49.1745 56.6493 48.4065 56.1806 47.946L55.7601 48.374C56.0513 48.6601 56.2403 49.2188 56.2403 50.15H56.8403ZM56.1824 47.9479C55.7222 47.4876 54.9588 47.3 53.9903 47.3V47.9C54.9151 47.9 55.4718 48.0858 55.7582 48.3721L56.1824 47.9479ZM53.9903 47.3H53.4303V47.9H53.9903V47.3ZM53.4303 47.3C52.3707 47.3 51.5006 47.4666 50.8456 47.8272L51.135 48.3528C51.6667 48.0601 52.4232 47.9 53.4303 47.9V47.3ZM50.8456 47.8272C50.1634 48.2028 49.7753 48.801 49.692 49.5884L50.2886 49.6516C50.352 49.0524 50.6306 48.6305 51.135 48.3528L50.8456 47.8272ZM49.6903 49.62V55.47H50.2903V49.62H49.6903ZM49.6903 55.47C49.6903 55.6018 49.658 55.6453 49.6462 55.6574C49.6354 55.6684 49.5959 55.7 49.4703 55.7V56.3C49.6914 56.3 49.9119 56.2433 50.0745 56.0776C50.236 55.913 50.2903 55.6915 50.2903 55.47H49.6903ZM61.7473 55.13L61.5352 55.3421L61.5352 55.3421L61.7473 55.13ZM61.7473 47.42L61.9582 47.6334L61.9595 47.6321L61.7473 47.42ZM68.6773 46.55V46.85H68.9773V46.55H68.6773ZM68.6773 54.61H68.9773V53.5614L68.4227 54.4513L68.6773 54.61ZM67.7373 54.46L67.8772 54.7254L67.8782 54.7249L67.7373 54.46ZM68.6773 47.6H68.9773V47.3H68.6773V47.6ZM62.4873 48.17L62.2752 47.9579L62.2752 47.9579L62.4873 48.17ZM62.4873 54.39L62.2733 54.6003L62.2771 54.604L62.4873 54.39ZM64.4873 55.7C63.2796 55.7 62.4598 55.4182 61.9595 54.9179L61.5352 55.3421C62.1949 56.0018 63.2018 56.3 64.4873 56.3V55.7ZM61.9595 54.9179C61.4591 54.4175 61.1773 53.5978 61.1773 52.39H60.5773C60.5773 53.6756 60.8756 54.6825 61.5352 55.3421L61.9595 54.9179ZM61.1773 52.39V50.15H60.5773V52.39H61.1773ZM61.1773 50.15C61.1773 48.9419 61.4593 48.1266 61.9582 47.6334L61.5364 47.2066C60.8754 47.8601 60.5773 48.8648 60.5773 50.15H61.1773ZM61.9595 47.6321C62.4598 47.1318 63.2796 46.85 64.4873 46.85V46.25C63.2018 46.25 62.1949 46.5482 61.5352 47.2079L61.9595 47.6321ZM64.4873 46.85H68.6773V46.25H64.4873V46.85ZM68.9773 46.55V42.65H68.3773V46.55H68.9773ZM68.9773 42.65C68.9773 42.5244 69.009 42.4849 69.0199 42.4741C69.032 42.4623 69.0755 42.43 69.2073 42.43V41.83C68.9859 41.83 68.7644 41.8843 68.5997 42.0459C68.4341 42.2084 68.3773 42.429 68.3773 42.65H68.9773ZM69.2073 42.43C69.3344 42.43 69.3746 42.4616 69.3852 42.4721C69.3958 42.4827 69.4273 42.5229 69.4273 42.65H70.0273C70.0273 42.4304 69.9722 42.2106 69.8095 42.0479C69.6467 41.8851 69.4269 41.83 69.2073 41.83V42.43ZM69.4273 42.65V55.47H70.0273V42.65H69.4273ZM69.4273 55.47C69.4273 55.6018 69.395 55.6453 69.3832 55.6574C69.3724 55.6684 69.333 55.7 69.2073 55.7V56.3C69.4284 56.3 69.6489 56.2433 69.8115 56.0776C69.973 55.913 70.0273 55.6915 70.0273 55.47H69.4273ZM69.2073 55.7C69.0769 55.7 69.0342 55.6676 69.022 55.6554C69.0097 55.6431 68.9773 55.6004 68.9773 55.47H68.3773C68.3773 55.6929 68.4333 55.9152 68.5977 56.0796C68.7621 56.2441 68.9844 56.3 69.2073 56.3V55.7ZM68.9773 55.47V54.61H68.3773V55.47H68.9773ZM68.4227 54.4513C68.1723 54.8531 67.8035 55.1616 67.3008 55.3736L67.5339 55.9264C68.1379 55.6717 68.609 55.2869 68.932 54.7687L68.4227 54.4513ZM67.3008 55.3736C66.7978 55.5857 66.1184 55.7 65.2473 55.7V56.3C66.163 56.3 66.9302 56.181 67.5339 55.9264L67.3008 55.3736ZM65.2473 55.7H64.4873V56.3H65.2473V55.7ZM64.4873 55.25H65.2473V54.65H64.4873V55.25ZM65.2473 55.25C66.3143 55.25 67.1982 55.0831 67.8772 54.7254L67.5975 54.1946C67.0365 54.4902 66.2604 54.65 65.2473 54.65V55.25ZM67.8782 54.7249C68.2281 54.5388 68.5063 54.2984 68.6961 53.9976C68.8866 53.6956 68.9773 53.3494 68.9773 52.97H68.3773C68.3773 53.2506 68.3114 53.4828 68.1886 53.6774C68.0651 53.8732 67.8733 54.0479 67.5965 54.1951L67.8782 54.7249ZM68.9773 52.97V47.6H68.3773V52.97H68.9773ZM68.6773 47.3H64.4873V47.9H68.6773V47.3ZM64.4873 47.3C63.5111 47.3 62.7417 47.4913 62.2752 47.9579L62.6995 48.3821C62.993 48.0887 63.557 47.9 64.4873 47.9V47.3ZM62.2752 47.9579C61.8149 48.4182 61.6273 49.1815 61.6273 50.15H62.2273C62.2273 49.2252 62.4131 48.6685 62.6995 48.3821L62.2752 47.9579ZM61.6273 50.15V52.39H62.2273V50.15H61.6273ZM61.6273 52.39C61.6273 53.3653 61.815 54.1337 62.2733 54.6002L62.7013 54.1798C62.413 53.8863 62.2273 53.3214 62.2273 52.39H61.6273ZM62.2771 54.604C62.7437 55.0624 63.5121 55.25 64.4873 55.25V54.65C63.5559 54.65 62.991 54.4643 62.6976 54.176L62.2771 54.604ZM73.8958 55.14L73.6836 55.3521L73.6849 55.3534L73.8958 55.14ZM73.8958 47.4L74.1067 47.6134L74.1079 47.6121L73.8958 47.4ZM76.6358 46.55L76.6326 46.85H76.6358V46.55ZM81.0058 47.42L80.7924 47.6309L80.7949 47.6334L81.0058 47.42ZM81.0058 55.13L80.7936 54.9179L80.7924 54.9191L81.0058 55.13ZM74.6358 54.39L74.4217 54.6003L74.4255 54.604L74.6358 54.39ZM80.2658 54.39L80.4779 54.6021L80.4798 54.6002L80.2658 54.39ZM76.6358 47.6L76.6327 47.9H76.6358V47.6ZM74.3158 48.63L74.04 48.5118L74.04 48.5118L74.3158 48.63ZM76.6358 55.7C75.4272 55.7 74.607 55.4212 74.1067 54.9266L73.6849 55.3534C74.3446 56.0055 75.351 56.3 76.6358 56.3V55.7ZM74.1079 54.9279C73.6073 54.4273 73.3258 53.6105 73.3258 52.41H72.7258C72.7258 53.6895 73.0243 54.6927 73.6836 55.3521L74.1079 54.9279ZM73.3258 52.41V50.15H72.7258V52.41H73.3258ZM73.3258 50.15C73.3258 48.9274 73.6082 48.1061 74.1067 47.6134L73.6849 47.1866C73.0233 47.8406 72.7258 48.8526 72.7258 50.15H73.3258ZM74.1079 47.6121C74.6071 47.113 75.4252 46.8371 76.6326 46.85L76.639 46.25C75.353 46.2363 74.3445 46.527 73.6836 47.1879L74.1079 47.6121ZM76.6358 46.85H78.2758V46.25H76.6358V46.85ZM78.2758 46.85C79.4839 46.85 80.2992 47.1319 80.7924 47.6309L81.2191 47.2091C80.5657 46.5481 79.561 46.25 78.2758 46.25V46.85ZM80.7949 47.6334C81.2939 48.1266 81.5758 48.9419 81.5758 50.15H82.1758C82.1758 48.8648 81.8777 47.8601 81.2167 47.2066L80.7949 47.6334ZM81.5758 50.15V52.39H82.1758V50.15H81.5758ZM81.5758 52.39C81.5758 53.5978 81.294 54.4175 80.7936 54.9179L81.2179 55.3421C81.8776 54.6825 82.1758 53.6756 82.1758 52.39H81.5758ZM80.7924 54.9191C80.2992 55.4181 79.4839 55.7 78.2758 55.7V56.3C79.561 56.3 80.5657 56.0019 81.2191 55.3409L80.7924 54.9191ZM78.2758 55.7H76.6358V56.3H78.2758V55.7ZM73.7758 52.41C73.7758 53.3734 73.964 54.1343 74.4218 54.6002L74.8498 54.1798C74.5609 53.8857 74.3758 53.3266 74.3758 52.41H73.7758ZM74.4255 54.604C74.8921 55.0624 75.6605 55.25 76.6358 55.25V54.65C75.7044 54.65 75.1395 54.4643 74.846 54.176L74.4255 54.604ZM76.6358 55.25H78.2758V54.65H76.6358V55.25ZM78.2758 55.25C79.2502 55.25 80.0173 55.0627 80.4779 54.6021L80.0536 54.1779C79.7676 54.464 79.208 54.65 78.2758 54.65V55.25ZM80.4798 54.6002C80.9382 54.1337 81.1258 53.3653 81.1258 52.39H80.5258C80.5258 53.3214 80.3401 53.8863 80.0518 54.1798L80.4798 54.6002ZM81.1258 52.39V50.15H80.5258V52.39H81.1258ZM81.1258 50.15C81.1258 49.1756 80.9385 48.4084 80.4779 47.9479L80.0536 48.3721C80.3397 48.6582 80.5258 49.2178 80.5258 50.15H81.1258ZM80.4779 47.9479C80.0173 47.4873 79.2502 47.3 78.2758 47.3V47.9C79.208 47.9 79.7676 48.086 80.0536 48.3721L80.4779 47.9479ZM78.2758 47.3H76.6358V47.9H78.2758V47.3ZM76.6389 47.3C75.9786 47.2931 75.425 47.3711 74.9976 47.5543L75.234 48.1057C75.5533 47.9689 76.013 47.8935 76.6327 47.9L76.6389 47.3ZM74.9976 47.5543C74.5535 47.7446 74.2304 48.0677 74.04 48.5118L74.5915 48.7482C74.7212 48.4456 74.9314 48.2354 75.234 48.1057L74.9976 47.5543ZM74.04 48.5118C73.8575 48.9378 73.7758 49.4902 73.7758 50.15H74.3758C74.3758 49.5298 74.4541 49.0689 74.5915 48.7482L74.04 48.5118ZM73.7758 50.15V52.41H74.3758V50.15H73.7758Z" fill="black"/>
</svg>
